<svg xmlns="http://www.w3.org/2000/svg" xmlns:xlink="http://www.w3.org/1999/xlink" viewBox="0,0,256,256" width="48px" height="48px"><g fill="none" fill-rule="nonzero" stroke="none" stroke-width="1" stroke-linecap="butt" stroke-linejoin="miter" stroke-miterlimit="10" stroke-dasharray="" stroke-dashoffset="0" font-family="none" font-weight="none" font-size="none" text-anchor="none" style="mix-blend-mode: normal"><g transform="scale(5.33333,5.33333)"><path d="M36,42h-24c-3.309,0 -6,-2.691 -6,-6v-30h4v30c0,1.103 0.897,2 2,2h24c1.103,0 2,-0.897 2,-2v-2h4v2c0,3.309 -2.691,6 -6,6z" fill="#ffffff"></path><path d="M42,13l-9,7v-14z" fill="#1e293b"></path><path d="M20,32h-4v-9c0,-6.617 5.383,-12 12,-12h7v4h-7c-4.411,0 -8,3.589 -8,8z" fill="#1e293b"></path></g></g></svg>