<svg xmlns="http://www.w3.org/2000/svg" xmlns:xlink="http://www.w3.org/1999/xlink" viewBox="0,0,256,256" width="48px" height="48px"><g fill="#1e293b" fill-rule="nonzero" stroke="none" stroke-width="1" stroke-linecap="butt" stroke-linejoin="miter" stroke-miterlimit="10" stroke-dasharray="" stroke-dashoffset="0" font-family="none" font-weight="none" font-size="none" text-anchor="none" style="mix-blend-mode: normal"><g transform="scale(5.33333,5.33333)"><path d="M24,33c-4.961,0 -9,-4.039 -9,-9c0,-4.961 4.039,-9 9,-9c4.961,0 9,4.039 9,9c0,4.961 -4.039,9 -9,9zM24,4c-11.028,0 -20,8.972 -20,20c0,11.028 8.972,20 20,20c11.028,0 20,-8.972 20,-20c0,-11.028 -8.972,-20 -20,-20zM24,36c-7.747,0 -14.935,-5.08 -18,-12c3.065,-6.92 10.253,-12 18,-12c7.747,0 14.935,5.08 18,12c-3.065,6.92 -10.253,12 -18,12z"></path></g></g></svg>